#!OML:ASF F:\VICON\USERDATA\INSTALL\rory3\rory3.ASF
:FULLY-SPECIFIED
:DEGREES
1886
root 0.0872181 17.9028 4.3252 0.34805 39.8357 4.0827
lowerback 2.97262 -0.931026 -2.07177
upperback 0.657401 -1.27425 2.17649
thorax -0.896505 -0.629752 3.44646
lowerneck -23.2384 -0.150306 -9.434
upperneck 11.4208 2.80412 -0.188657
head 7.14783 0.894064 1.7812
rclavicle -2.17172e-014 1.11319e-014
rhumerus 1.40567 -16.4778 -26.5102
rradius 71.0375
rwrist 4.28645
rhand -29.5345 1.5725
rfingers 7.12502
rthumb -2.86788 -28.388
lclavicle -2.17172e-014 1.11319e-014
lhumerus -4.14497 4.70488 29.985
lradius 65.7592
lwrist 13.0612
lhand -10.5482 25.0083
lfingers 7.12502
lthumb 15.4557 54.4104
rfemur -15.914 -2.39609 17.0882
rtibia 35.5746
rfoot -14.2799 -8.3646
rtoes 13.259
lfemur -5.91809 -3.19536 -14.8967
ltibia 46.3252
lfoot 14.9603 -25.59
ltoes -15.1725
1887
root 0.0904516 17.906 4.30674 0.186901 39.7252 4.06307
lowerback 2.8522 -0.976415 -2.15763
upperback 0.423729 -1.33447 2.24182
thorax -1.06094 -0.654209 3.56512
lowerneck -23.3808 -0.17007 -9.43311
upperneck 10.9285 2.74195 0.00571605
head 7.00433 0.90308 1.83354
rclavicle -5.55949e-014 -1.11319e-014
rhumerus 1.90119 -17.4927 -24.7211
rradius 72.1004
rwrist 4.09802
rhand -29.488 0.747414
rfingers 7.12502
rthumb -2.82305 -29.2136
lclavicle -5.55949e-014 -1.11319e-014
lhumerus -3.51918 6.21388 28.521
lradius 65.8966
lwrist 14.5859
lhand -11.9344 26.109
lfingers 7.12502
lthumb 14.1202 55.6092
rfemur -15.7593 -2.2072 17.0047
rtibia 35.4493
rfoot -14.2015 -8.27923
rtoes 13.5097
lfemur -5.34256 -3.37376 -15.0689
ltibia 45.8549
lfoot 16.5047 -25.6322
ltoes -11.9627
1888
root 0.0937857 17.9084 4.28441 0.182157 39.6479 4.16175
lowerback 2.63928 -1.00181 -2.29837
upperback 0.206107 -1.36939 2.24377
thorax -1.1591 -0.666865 3.64614
lowerneck -23.582 -0.246828 -9.4211
upperneck 10.5201 2.59756 0.283599
head 6.90088 0.877078 1.90341
rclavicle 2.48481e-017 -7.95139e-016
rhumerus 2.42643 -18.8611 -23.0969
rradius 73.1134
rwrist 3.69712
rhand -28.9636 0.674211
rfingers 7.12502
rthumb -2.31657 -29.293
lclavicle 2.48481e-017 -7.95139e-016
lhumerus -2.77144 7.81086 27.0536
lradius 65.9948
lwrist 15.725
lhand -12.1067 26.4438
lfingers 7.12502
lthumb 13.9542 55.9555
rfemur -15.714 -2.05902 16.8174
rtibia 35.3459
rfoot -14.2395 -8.21731
rtoes 14.7472
lfemur -4.83113 -3.6461 -15.3817
ltibia 45.2612
lfoot 17.621 -25.7885
ltoes -9.85867
1889
root 0.0964833 17.9058 4.26218 0.0619958 39.541 4.13777
lowerback 2.37309 -1.05295 -2.44562
upperback 0.0717641 -1.43667 2.31385
thorax -1.1371 -0.698297 3.7998
lowerneck -23.6304 -0.243099 -9.36732
upperneck 9.85451 2.53898 0.478727
head 6.6865 0.896101 1.94552
rclavicle -7.79484e-014 -1.59028e-014
rhumerus 3.21398 -20.4724 -21.7467
rradius 73.9794
rwrist 3.45768
rhand -28.2742 1.23779
rfingers 7.12502
rthumb -1.65072 -28.7356
lclavicle -7.79484e-014 -1.59028e-014
lhumerus -1.97692 9.66946 25.7448
lradius 65.8963
lwrist 16.598
lhand -11.279 26.1162
lfingers 7.12502
lthumb 14.7518 55.5713
rfemur -15.6157 -1.99281 16.7688
rtibia 35.2808
rfoot -14.2001 -8.10247
rtoes 15.329
lfemur -4.23608 -3.87903 -15.5733
ltibia 44.5685
lfoot 18.1048 -26.3704
ltoes -9.91638
1890
root 0.100433 17.9027 4.23477 -0.0901648 39.4101 4.01558
lowerback 2.06996 -1.16291 -2.48809
upperback -0.0642265 -1.57754 2.43675
thorax -1.09045 -0.76714 3.94966
lowerneck -23.6444 -0.20169 -9.43892
upperneck 9.12779 2.55523 0.750361
head 6.44123 0.954975 2.04004
rclavicle 8.96519e-014 7.95139e-015
rhumerus 4.16092 -21.8518 -20.3831
rradius 74.7842
rwrist 3.35277
rhand -28.3449 1.675
rfingers 7.12502
rthumb -1.71902 -28.2978
lclavicle 8.96519e-014 7.95139e-015
lhumerus -1.23725 11.7444 24.65
lradius 65.6565
lwrist 17.3146
lhand -11.0675 26.2238
lfingers 7.12502
lthumb 14.9555 55.6638
rfemur -15.5847 -1.9085 16.7795
rtibia 35.266
rfoot -14.1171 -7.94357
rtoes 15.8368
lfemur -3.64844 -4.11516 -15.6851
ltibia 43.8075
lfoot 18.2 -26.9642
ltoes -9.97179
1891
root 0.103044 17.8996 4.2034 -0.211735 39.2697 3.95411
lowerback 1.84973 -1.23516 -2.52058
upperback -0.221816 -1.67021 2.46748
thorax -1.119 -0.810421 3.99897
lowerneck -23.8276 -0.213978 -9.35766
upperneck 8.6896 2.48714 0.98752
head 6.32464 0.963337 2.09421
rclavicle 5.02925e-014 -7.95139e-016
rhumerus 4.88733 -23.2529 -19.0446
rradius 75.578
rwrist 3.48741
rhand -28.7369 1.92116
rfingers 7.12502
rthumb -2.09763 -28.0483
lclavicle 5.02925e-014 -7.95139e-016
lhumerus -0.360892 13.6645 23.5789
lradius 65.4455
lwrist 17.9649
lhand -11.273 26.5825
lfingers 7.12502
lthumb 14.7575 56.0371
rfemur -15.6221 -1.80554 16.7377
rtibia 35.3188
rfoot -14.0359 -7.852
rtoes 16.1845
lfemur -3.09362 -4.39271 -15.8767
ltibia 43.0004
lfoot 18.0783 -27.2194
ltoes -7.63589
1892
root 0.104685 17.8873 4.17142 -0.368541 39.1105 3.83876
lowerback 1.70009 -1.27086 -2.47753
upperback -0.424725 -1.71349 2.46062
thorax -1.24121 -0.827056 3.96799
lowerneck -23.9528 -0.282881 -9.27644
upperneck 8.4055 2.32779 1.32104
head 6.2537 0.929982 2.17102
rclavicle -1.91778e-013 1.03368e-014
rhumerus 5.52391 -24.898 -17.9644
rradius 76.3533
rwrist 3.96817
rhand -28.7297 2.27584
rfingers 7.12502
rthumb -2.09068 -27.6937
lclavicle -1.91778e-013 1.03368e-014
lhumerus 0.477024 15.3143 22.4268
lradius 65.343
lwrist 18.5442
lhand -11.4066 26.7358
lfingers 7.12502
lthumb 14.6288 56.1998
rfemur -15.6951 -1.76758 16.7532
rtibia 35.4415
rfoot -13.987 -7.67743
rtoes 16.5016
lfemur -2.58251 -4.66312 -16.0283
ltibia 42.1858
lfoot 17.5875 -27.2298
ltoes -4.29651
1893
root 0.107169 17.8682 4.13651 -0.509507 38.9001 3.72605
lowerback 1.63529 -1.33907 -2.44089
upperback -0.71429 -1.80008 2.49359
thorax -1.49506 -0.86133 3.98702
lowerneck -23.8137 -0.259249 -9.22016
upperneck 7.95872 2.2735 1.62739
head 6.08457 0.948688 2.25063
rclavicle -2.5196e-014 -1.59028e-014
rhumerus 6.24022 -26.2148 -16.8567
rradius 76.9799
rwrist 4.25156
rhand -29.0323 2.89511
rfingers 7.12502
rthumb -2.3829 -27.0713
lclavicle -2.5196e-014 -1.59028e-014
lhumerus 1.0723 16.6693 21.1774
lradius 65.3217
lwrist 19.4404
lhand -12.2504 27.3963
lfingers 7.12502
lthumb 13.8157 56.9175
rfemur -15.831 -1.80696 16.7646
rtibia 35.6157
rfoot -13.845 -7.45932
rtoes 16.1589
lfemur -2.01775 -4.91213 -16.1541
ltibia 41.3515
lfoot 16.543 -27.2354
ltoes -2.35265
1894
root 0.106187 17.849 4.09592 -0.767715 38.636 3.44117
lowerback 1.64188 -1.36624 -2.30991
upperback -1.02705 -1.82879 2.56771
thorax -1.81961 -0.865663 3.99695
lowerneck -23.5012 -0.23302 -9.06734
upperneck 7.36709 2.18954 1.84361
head 5.84704 0.951147 2.27895
rclavicle -4.07509e-015 -7.95139e-015
rhumerus 6.637 -27.1138 -15.2708
rradius 77.5307
rwrist 4.0449
rhand -29.7692 3.06137
rfingers 7.12502
rthumb -3.09461 -26.8959
lclavicle -4.07509e-015 -7.95139e-015
lhumerus 1.85966 17.946 20.2007
lradius 65.2673
lwrist 20.3896
lhand -13.4884 28.3459
lfingers 7.12502
lthumb 12.6223 57.9445
rfemur -16.0219 -1.66204 16.9348
rtibia 35.8262
rfoot -13.768 -7.40683
rtoes 15.773
lfemur -1.41895 -5.14296 -16.0981
ltibia 40.4959
lfoot 15.3437 -27.4018
ltoes -1.85672
1895
root 0.103719 17.8314 4.05505 -1.00198 38.3829 3.22223
lowerback 1.61439 -1.37671 -2.26454
upperback -1.30292 -1.83769 2.59597
thorax -2.08792 -0.861199 4.00574
lowerneck -23.2229 -0.263217 -8.94012
upperneck 6.88817 2.02655 2.22056
head 5.65496 0.922415 2.35682
rclavicle 6.02318e-014 1.59028e-015
rhumerus 6.81646 -28.1552 -13.8249
rradius 78.2529
rwrist 3.72598
rhand -30.5927 3.14636
rfingers 7.12502
rthumb -3.88987 -26.7979
lclavicle 6.02318e-014 1.59028e-015
lhumerus 2.80288 19.309 19.3325
lradius 65.133
lwrist 20.9718
lhand -14.0661 28.746
lfingers 7.12502
lthumb 12.0654 58.3781
rfemur -16.1916 -1.45273 17.0613
rtibia 36.0257
rfoot -13.7338 -7.41304
rtoes 15.679
lfemur -0.814087 -5.51585 -16.1574
ltibia 39.5924
lfoot 14.1974 -27.9186
ltoes -2.85835
